G04 #@! TF.GenerationSoftware,KiCad,Pcbnew,7.0.11+dfsg-1build4*
G04 #@! TF.CreationDate,2024-10-21T23:09:42+01:00*
G04 #@! TF.ProjectId,edrumulus,65647275-6d75-46c7-9573-2e6b69636164,rev?*
G04 #@! TF.SameCoordinates,Original*
G04 #@! TF.FileFunction,Soldermask,Bot*
G04 #@! TF.FilePolarity,Negative*
%FSLAX46Y46*%
G04 Gerber Fmt 4.6, Leading zero omitted, Abs format (unit mm)*
G04 Created by KiCad (PCBNEW 7.0.11+dfsg-1build4) date 2024-10-21 23:09:42*
%MOMM*%
%LPD*%
G01*
G04 APERTURE LIST*
%ADD10C,3.000000*%
%ADD11R,1.050000X1.500000*%
%ADD12O,1.050000X1.500000*%
%ADD13R,1.600000X1.600000*%
%ADD14O,1.600000X1.600000*%
%ADD15R,1.700000X1.700000*%
%ADD16O,1.700000X1.700000*%
%ADD17C,2.500000*%
%ADD18R,2.000000X1.200000*%
%ADD19O,2.000000X1.200000*%
G04 APERTURE END LIST*
D10*
X197625000Y-44535000D03*
X213855000Y-44535000D03*
X197625000Y-38185000D03*
X213855000Y-38185000D03*
X197625000Y-50885000D03*
X213855000Y-50885000D03*
D11*
X121285000Y-111400000D03*
D12*
X120015000Y-111400000D03*
X118745000Y-111400000D03*
D13*
X211455000Y-120650000D03*
D14*
X211455000Y-113030000D03*
D10*
X96025000Y-44535000D03*
X112255000Y-44535000D03*
X96025000Y-38185000D03*
X112255000Y-38185000D03*
X96025000Y-50885000D03*
X112255000Y-50885000D03*
X116345000Y-44535000D03*
X132575000Y-44535000D03*
X116345000Y-38185000D03*
X132575000Y-38185000D03*
X116345000Y-50885000D03*
X132575000Y-50885000D03*
D15*
X164719000Y-118232000D03*
D16*
X164719000Y-120772000D03*
D17*
X210964700Y-68588800D03*
X210964700Y-76088800D03*
X210964700Y-83588800D03*
X208464700Y-71088800D03*
X208464700Y-81088800D03*
X220964700Y-81088800D03*
X220964700Y-71088800D03*
D10*
X177305000Y-44535000D03*
X193535000Y-44535000D03*
X177305000Y-38185000D03*
X193535000Y-38185000D03*
X177305000Y-50885000D03*
X193535000Y-50885000D03*
D18*
X132715000Y-66040000D03*
D19*
X132715000Y-68580000D03*
X132715000Y-71120000D03*
X132715000Y-73660000D03*
X132715000Y-76200000D03*
X132715000Y-78740000D03*
X132715000Y-81280000D03*
X132715000Y-83820000D03*
X132715000Y-86360000D03*
X132715000Y-88900000D03*
X132715000Y-91440000D03*
X132715000Y-93980000D03*
X132715000Y-96520000D03*
X132715000Y-99060000D03*
X132715000Y-101600000D03*
X132715000Y-104140000D03*
X132715000Y-106680000D03*
X132715000Y-109220000D03*
X132715000Y-111760000D03*
X132711320Y-114297280D03*
X132711320Y-116837280D03*
X132711320Y-119377280D03*
X155575000Y-119380000D03*
X155575000Y-116840000D03*
X155575000Y-114300000D03*
X155575000Y-111760000D03*
X155575000Y-109220000D03*
X155575000Y-106680000D03*
X155575000Y-104140000D03*
X155575000Y-101600000D03*
X155575000Y-99060000D03*
X155575000Y-96520000D03*
X155575000Y-93980000D03*
X155575000Y-91440000D03*
X155575000Y-88900000D03*
X155575000Y-86360000D03*
X155575000Y-83820000D03*
X155575000Y-81280000D03*
X155575000Y-78740000D03*
X155575000Y-76200000D03*
X155575000Y-73660000D03*
X155575000Y-71120000D03*
X155575000Y-68580000D03*
X155575000Y-66040000D03*
D14*
X199390000Y-124460000D03*
X199390000Y-121920000D03*
X199390000Y-119380000D03*
X199390000Y-116840000D03*
X207010000Y-116840000D03*
X207010000Y-119380000D03*
X207010000Y-121920000D03*
D13*
X207010000Y-124460000D03*
D10*
X40810000Y-98780000D03*
X40810000Y-82550000D03*
X34460000Y-98780000D03*
X34460000Y-82550000D03*
X47160000Y-98780000D03*
X47160000Y-82550000D03*
X136665000Y-44535000D03*
X152895000Y-44535000D03*
X136665000Y-38185000D03*
X152895000Y-38185000D03*
X136665000Y-50885000D03*
X152895000Y-50885000D03*
D15*
X219710000Y-57785000D03*
D16*
X219710000Y-55245000D03*
X219710000Y-52705000D03*
X219710000Y-50165000D03*
D10*
X40725000Y-77965000D03*
X40725000Y-61735000D03*
X34375000Y-77965000D03*
X34375000Y-61735000D03*
X47075000Y-77965000D03*
X47075000Y-61735000D03*
X75705000Y-44535000D03*
X91935000Y-44535000D03*
X75705000Y-38185000D03*
X91935000Y-38185000D03*
X75705000Y-50885000D03*
X91935000Y-50885000D03*
X55385000Y-44535000D03*
X71615000Y-44535000D03*
X55385000Y-38185000D03*
X71615000Y-38185000D03*
X55385000Y-50885000D03*
X71615000Y-50885000D03*
X156985000Y-44535000D03*
X173215000Y-44535000D03*
X156985000Y-38185000D03*
X173215000Y-38185000D03*
X156985000Y-50885000D03*
X173215000Y-50885000D03*
D15*
X219710000Y-44450000D03*
D16*
X219710000Y-41910000D03*
D10*
X40810000Y-119100000D03*
X40810000Y-102870000D03*
X34460000Y-119100000D03*
X34460000Y-102870000D03*
X47160000Y-119100000D03*
X47160000Y-102870000D03*
X35065000Y-44535000D03*
X51295000Y-44535000D03*
X35065000Y-38185000D03*
X51295000Y-38185000D03*
X35065000Y-50885000D03*
X51295000Y-50885000D03*
D17*
X210964700Y-91448800D03*
X210964700Y-98948800D03*
X210964700Y-106448800D03*
X208464700Y-93948800D03*
X208464700Y-103948800D03*
X220964700Y-103948800D03*
X220964700Y-93948800D03*
M02*
