G04 #@! TF.GenerationSoftware,KiCad,Pcbnew,7.0.11+dfsg-1build4*
G04 #@! TF.CreationDate,2024-10-20T23:49:45+01:00*
G04 #@! TF.ProjectId,edrumulus,65647275-6d75-46c7-9573-2e6b69636164,rev?*
G04 #@! TF.SameCoordinates,Original*
G04 #@! TF.FileFunction,Paste,Top*
G04 #@! TF.FilePolarity,Positive*
%FSLAX46Y46*%
G04 Gerber Fmt 4.6, Leading zero omitted, Abs format (unit mm)*
G04 Created by KiCad (PCBNEW 7.0.11+dfsg-1build4) date 2024-10-20 23:49:45*
%MOMM*%
%LPD*%
G01*
G04 APERTURE LIST*
G04 Aperture macros list*
%AMRoundRect*
0 Rectangle with rounded corners*
0 $1 Rounding radius*
0 $2 $3 $4 $5 $6 $7 $8 $9 X,Y pos of 4 corners*
0 Add a 4 corners polygon primitive as box body*
4,1,4,$2,$3,$4,$5,$6,$7,$8,$9,$2,$3,0*
0 Add four circle primitives for the rounded corners*
1,1,$1+$1,$2,$3*
1,1,$1+$1,$4,$5*
1,1,$1+$1,$6,$7*
1,1,$1+$1,$8,$9*
0 Add four rect primitives between the rounded corners*
20,1,$1+$1,$2,$3,$4,$5,0*
20,1,$1+$1,$4,$5,$6,$7,0*
20,1,$1+$1,$6,$7,$8,$9,0*
20,1,$1+$1,$8,$9,$2,$3,0*%
G04 Aperture macros list end*
%ADD10RoundRect,0.250000X-0.325000X-0.650000X0.325000X-0.650000X0.325000X0.650000X-0.325000X0.650000X0*%
%ADD11RoundRect,0.250000X-0.312500X-0.625000X0.312500X-0.625000X0.312500X0.625000X-0.312500X0.625000X0*%
%ADD12RoundRect,0.250000X0.625000X-0.312500X0.625000X0.312500X-0.625000X0.312500X-0.625000X-0.312500X0*%
%ADD13RoundRect,0.250000X-0.625000X0.312500X-0.625000X-0.312500X0.625000X-0.312500X0.625000X0.312500X0*%
%ADD14RoundRect,0.250000X0.312500X0.625000X-0.312500X0.625000X-0.312500X-0.625000X0.312500X-0.625000X0*%
%ADD15RoundRect,0.150000X0.587500X0.150000X-0.587500X0.150000X-0.587500X-0.150000X0.587500X-0.150000X0*%
%ADD16RoundRect,0.150000X-0.150000X0.587500X-0.150000X-0.587500X0.150000X-0.587500X0.150000X0.587500X0*%
%ADD17RoundRect,0.150000X0.150000X-0.587500X0.150000X0.587500X-0.150000X0.587500X-0.150000X-0.587500X0*%
%ADD18RoundRect,0.250000X-0.650000X0.325000X-0.650000X-0.325000X0.650000X-0.325000X0.650000X0.325000X0*%
%ADD19RoundRect,0.250000X0.650000X-0.325000X0.650000X0.325000X-0.650000X0.325000X-0.650000X-0.325000X0*%
G04 APERTURE END LIST*
D10*
X201901000Y-112395000D03*
X204851000Y-112395000D03*
D11*
X189353000Y-107442000D03*
X192278000Y-107442000D03*
D12*
X73787000Y-110363000D03*
X73787000Y-107438000D03*
D13*
X77851000Y-107249500D03*
X77851000Y-110174500D03*
X70612000Y-107438000D03*
X70612000Y-110363000D03*
X87757000Y-100346500D03*
X87757000Y-97421500D03*
X83693000Y-100473500D03*
X83693000Y-97548500D03*
D12*
X79248000Y-97548500D03*
X79248000Y-100473500D03*
X75565000Y-97548500D03*
X75565000Y-100473500D03*
D13*
X68707000Y-100539000D03*
X68707000Y-97614000D03*
X72517000Y-100539000D03*
X72517000Y-97614000D03*
D12*
X75057000Y-86628000D03*
X75057000Y-89553000D03*
D13*
X78486000Y-89680000D03*
X78486000Y-86755000D03*
X71882000Y-89553000D03*
X71882000Y-86628000D03*
D12*
X82042000Y-89680000D03*
X82042000Y-86755000D03*
X60899000Y-89601000D03*
X60899000Y-86676000D03*
D13*
X64582000Y-86803000D03*
X64582000Y-89728000D03*
D11*
X189353000Y-123698000D03*
X192278000Y-123698000D03*
D14*
X192466500Y-119888000D03*
X189541500Y-119888000D03*
D11*
X189353000Y-111125000D03*
X192278000Y-111125000D03*
D12*
X215275000Y-122122500D03*
X215275000Y-119197500D03*
D14*
X192466500Y-116078000D03*
X189541500Y-116078000D03*
D12*
X71181000Y-67170000D03*
X71181000Y-64245000D03*
D13*
X118999000Y-89141500D03*
X118999000Y-86216500D03*
X118618000Y-78600500D03*
X118618000Y-75675500D03*
X119253000Y-100203000D03*
X119253000Y-97278000D03*
D12*
X161544000Y-63184500D03*
X161544000Y-60259500D03*
D13*
X75499000Y-64437500D03*
X75499000Y-67362500D03*
X67371000Y-64482500D03*
X67371000Y-67407500D03*
D12*
X113919000Y-86216500D03*
X113919000Y-89141500D03*
X109093000Y-86216500D03*
X109093000Y-89141500D03*
X113538000Y-75675500D03*
X113538000Y-78600500D03*
X108966000Y-75675500D03*
X108966000Y-78600500D03*
X114173000Y-97470500D03*
X114173000Y-100395500D03*
X109347000Y-97278000D03*
X109347000Y-100203000D03*
X164846000Y-63438500D03*
X164846000Y-60513500D03*
D13*
X185166000Y-81644500D03*
X185166000Y-84569500D03*
X188722000Y-81644500D03*
X188722000Y-84569500D03*
D12*
X195072000Y-76060500D03*
X195072000Y-73135500D03*
X191262000Y-76060500D03*
X191262000Y-73135500D03*
X107188000Y-63921000D03*
X107188000Y-66846000D03*
X110998000Y-63688500D03*
X110998000Y-66613500D03*
D13*
X71821000Y-76647000D03*
X71821000Y-79572000D03*
X68646000Y-76454500D03*
X68646000Y-79379500D03*
D12*
X191770000Y-84569500D03*
X191770000Y-81644500D03*
X195072000Y-84569500D03*
X195072000Y-81644500D03*
D13*
X184277000Y-73135500D03*
X184277000Y-76060500D03*
X188087000Y-73135500D03*
X188087000Y-76060500D03*
X118618000Y-66421000D03*
X118618000Y-63496000D03*
X122428000Y-66421000D03*
X122428000Y-63496000D03*
X78396000Y-76454500D03*
X78396000Y-79379500D03*
X81571000Y-76454500D03*
X81571000Y-79379500D03*
X172974000Y-81644500D03*
X172974000Y-84569500D03*
X177292000Y-81644500D03*
X177292000Y-84569500D03*
X172847000Y-73328000D03*
X172847000Y-76253000D03*
X176657000Y-73328000D03*
X176657000Y-76253000D03*
D12*
X96423000Y-64113500D03*
X96423000Y-67038500D03*
X100868000Y-64113500D03*
X100868000Y-67038500D03*
D13*
X61026000Y-76454500D03*
X61026000Y-79379500D03*
D12*
X64201000Y-79379500D03*
X64201000Y-76454500D03*
D15*
X90763500Y-78867000D03*
X90763500Y-76967000D03*
X88888500Y-77917000D03*
D16*
X63434000Y-108155500D03*
X61534000Y-108155500D03*
X62484000Y-110030500D03*
X92771000Y-99870000D03*
X91821000Y-97995000D03*
X93721000Y-97995000D03*
X98547000Y-100045500D03*
X97597000Y-98170500D03*
X99497000Y-98170500D03*
X91755000Y-89281500D03*
X90805000Y-87406500D03*
X92705000Y-87406500D03*
X97155000Y-87406500D03*
X95255000Y-87406500D03*
X96205000Y-89281500D03*
D17*
X157414000Y-60355000D03*
X158364000Y-62230000D03*
X156464000Y-62230000D03*
D16*
X106487000Y-97803000D03*
X104587000Y-97803000D03*
X105537000Y-99678000D03*
X63368000Y-65024000D03*
X61468000Y-65024000D03*
X62418000Y-66899000D03*
X105283000Y-88616500D03*
X104333000Y-86741500D03*
X106233000Y-86741500D03*
X104902000Y-78075500D03*
X103952000Y-76200500D03*
X105852000Y-76200500D03*
D17*
X161864000Y-84044500D03*
X163764000Y-84044500D03*
X162814000Y-82169500D03*
X166690000Y-84298500D03*
X168590000Y-84298500D03*
X167640000Y-82423500D03*
X161102000Y-75535500D03*
X163002000Y-75535500D03*
X162052000Y-73660500D03*
X166182000Y-75535500D03*
X168082000Y-75535500D03*
X167132000Y-73660500D03*
X87503000Y-64638500D03*
X88453000Y-66513500D03*
X86553000Y-66513500D03*
X92268000Y-64546000D03*
X93218000Y-66421000D03*
X91318000Y-66421000D03*
D15*
X95208500Y-78867000D03*
X95208500Y-76967000D03*
X93333500Y-77917000D03*
D18*
X100457000Y-86790000D03*
X100457000Y-89740000D03*
X82423000Y-107364000D03*
X82423000Y-110314000D03*
D19*
X83058000Y-64184000D03*
X83058000Y-67134000D03*
D18*
X180594000Y-66978000D03*
X180594000Y-69928000D03*
X99568000Y-76249000D03*
X99568000Y-79199000D03*
D19*
X66421000Y-110568000D03*
X66421000Y-107618000D03*
X60325000Y-100740000D03*
X60325000Y-97790000D03*
X64008000Y-97585000D03*
X64008000Y-100535000D03*
X85979000Y-89770500D03*
X85979000Y-86820500D03*
D18*
X68265000Y-89740500D03*
X68265000Y-86790500D03*
X117856000Y-118230000D03*
X117856000Y-121180000D03*
X79182000Y-64314500D03*
X79182000Y-67264500D03*
D19*
X123317000Y-86204000D03*
X123317000Y-89154000D03*
X122682000Y-75663000D03*
X122682000Y-78613000D03*
D18*
X125476000Y-118286000D03*
X125476000Y-121236000D03*
D19*
X123571000Y-97265500D03*
X123571000Y-100215500D03*
X198882000Y-84582000D03*
X198882000Y-81632000D03*
D18*
X121158000Y-118159000D03*
X121158000Y-121109000D03*
X199517000Y-73328000D03*
X199517000Y-76278000D03*
X114808000Y-66626000D03*
X114808000Y-63676000D03*
X85381000Y-76442000D03*
X85381000Y-79392000D03*
D19*
X181102000Y-84533000D03*
X181102000Y-81583000D03*
D18*
X180467000Y-73123000D03*
X180467000Y-76073000D03*
X104013000Y-66831000D03*
X104013000Y-63881000D03*
D19*
X74996000Y-79597000D03*
X74996000Y-76647000D03*
M02*
