M48
; DRILL file {KiCad 7.0.11+dfsg-1build4} date Sun 20 Oct 2024 23:49:47 BST
; FORMAT={-:-/ absolute / inch / decimal}
; #@! TF.CreationDate,2024-10-20T23:49:47+01:00
; #@! TF.GenerationSoftware,Kicad,Pcbnew,7.0.11+dfsg-1build4
; #@! TF.FileFunction,Plated,1,2,PTH
FMAT,2
INCH
; #@! TA.AperFunction,Plated,PTH,ViaDrill
T1C0.0157
; #@! TA.AperFunction,Plated,PTH,ComponentDrill
T2C0.0295
; #@! TA.AperFunction,Plated,PTH,ComponentDrill
T3C0.0315
; #@! TA.AperFunction,Plated,PTH,ComponentDrill
T4C0.0394
; #@! TA.AperFunction,Plated,PTH,ComponentDrill
T5C0.0551
%
G90
G05
T1
X2.3347Y-2.9264
X2.4666Y-3.1171
X2.6258Y-3.5478
X3.1546Y-3.5307
X3.5091Y-2.5462
X3.6119Y-3.0676
X3.8129Y-2.4752
X3.8419Y-3.9215
X3.8576Y-3.1205
X3.9044Y-2.9521
X3.941Y-2.9197
X4.0049Y-3.1533
X4.0309Y-2.8835
X4.0431Y-3.4169
X4.0494Y-3.0229
X4.0803Y-3.9854
X4.0862Y-3.9388
X4.2341Y-3.3666
X4.3438Y-3.7812
X4.3875Y-2.3092
X4.6064Y-3.7077
X4.7509Y-2.5099
X4.8297Y-3.6228
X4.9158Y-3.3
X4.984Y-3.4019
X5.1144Y-3.0418
X5.2989Y-4.0285
X6.076Y-3.4611
X6.4563Y-2.5464
X6.6209Y-2.9049
X6.6749Y-3.3563
X6.805Y-2.8384
X6.8166Y-3.1198
X6.8677Y-2.9927
X6.955Y-2.8378
X7.104Y-3.1198
X7.6127Y-3.2035
T2
X4.675Y-4.3858
X4.725Y-4.3858
X4.775Y-4.3858
T3
X5.2249Y-4.4999
X5.2249Y-4.5999
X5.2249Y-4.6999
X5.225Y-2.6
X5.225Y-2.7
X5.225Y-2.8
X5.225Y-2.9
X5.225Y-3.0
X5.225Y-3.1
X5.225Y-3.2
X5.225Y-3.3
X5.225Y-3.4
X5.225Y-3.5
X5.225Y-3.6
X5.225Y-3.7
X5.225Y-3.8
X5.225Y-3.9
X5.225Y-4.0
X5.225Y-4.1
X5.225Y-4.2
X5.225Y-4.3
X5.225Y-4.4
X6.125Y-2.6
X6.125Y-2.7
X6.125Y-2.8
X6.125Y-2.9
X6.125Y-3.0
X6.125Y-3.1
X6.125Y-3.2
X6.125Y-3.3
X6.125Y-3.4
X6.125Y-3.5
X6.125Y-3.6
X6.125Y-3.7
X6.125Y-3.8
X6.125Y-3.9
X6.125Y-4.0
X6.125Y-4.1
X6.125Y-4.2
X6.125Y-4.3
X6.125Y-4.4
X6.125Y-4.5
X6.125Y-4.6
X6.125Y-4.7
X7.85Y-4.6
X7.85Y-4.7
X7.85Y-4.8
X7.85Y-4.9
X8.15Y-4.6
X8.15Y-4.7
X8.15Y-4.8
X8.15Y-4.9
X8.325Y-4.45
X8.325Y-4.75
T4
X6.485Y-4.6548
X6.485Y-4.7548
X8.65Y-1.65
X8.65Y-1.75
X8.65Y-1.975
X8.65Y-2.075
X8.65Y-2.175
X8.65Y-2.275
T5
X1.3533Y-2.4305
X1.3533Y-3.0695
X1.3567Y-3.25
X1.3567Y-3.889
X1.3567Y-4.05
X1.3567Y-4.689
X1.3805Y-1.5033
X1.3805Y-1.7533
X1.3805Y-2.0033
X1.6033Y-2.4305
X1.6033Y-3.0695
X1.6067Y-3.25
X1.6067Y-3.889
X1.6067Y-4.05
X1.6067Y-4.689
X1.8533Y-2.4305
X1.8533Y-3.0695
X1.8567Y-3.25
X1.8567Y-3.889
X1.8567Y-4.05
X1.8567Y-4.689
X2.0195Y-1.5033
X2.0195Y-1.7533
X2.0195Y-2.0033
X2.1805Y-1.5033
X2.1805Y-1.7533
X2.1805Y-2.0033
X2.8195Y-1.5033
X2.8195Y-1.7533
X2.8195Y-2.0033
X2.9805Y-1.5033
X2.9805Y-1.7533
X2.9805Y-2.0033
X3.6195Y-1.5033
X3.6195Y-1.7533
X3.6195Y-2.0033
X3.7805Y-1.5033
X3.7805Y-1.7533
X3.7805Y-2.0033
X4.4195Y-1.5033
X4.4195Y-1.7533
X4.4195Y-2.0033
X4.5805Y-1.5033
X4.5805Y-1.7533
X4.5805Y-2.0033
X5.2195Y-1.5033
X5.2195Y-1.7533
X5.2195Y-2.0033
X5.3805Y-1.5033
X5.3805Y-1.7533
X5.3805Y-2.0033
X6.0195Y-1.5033
X6.0195Y-1.7533
X6.0195Y-2.0033
X6.1805Y-1.5033
X6.1805Y-1.7533
X6.1805Y-2.0033
X6.8195Y-1.5033
X6.8195Y-1.7533
X6.8195Y-2.0033
X6.9805Y-1.5033
X6.9805Y-1.7533
X6.9805Y-2.0033
X7.6195Y-1.5033
X7.6195Y-1.7533
X7.6195Y-2.0033
X7.7805Y-1.5033
X7.7805Y-1.7533
X7.7805Y-2.0033
X8.2073Y-2.7988
X8.2073Y-3.1925
X8.2073Y-3.6988
X8.2073Y-4.0925
X8.3057Y-2.7003
X8.3057Y-2.9956
X8.3057Y-3.2909
X8.3057Y-3.6003
X8.3057Y-3.8956
X8.3057Y-4.1909
X8.4195Y-1.5033
X8.4195Y-1.7533
X8.4195Y-2.0033
X8.6994Y-2.7988
X8.6994Y-3.1925
X8.6994Y-3.6988
X8.6994Y-4.0925
M30
